<?xml version="1.0" encoding="iso-8859-1"?>
<!-- Generator: Adobe Illustrator 19.0.0, SVG Export Plug-In . SVG Version: 6.00 Build 0)  -->
<svg xmlns="http://www.w3.org/2000/svg" xmlns:xlink="http://www.w3.org/1999/xlink" version="1.1" id="Capa_1" x="0px" y="0px" viewBox="0 0 512 512" style="enable-background:new 0 0 512 512;" xml:space="preserve" width="512px" height="512px">
		<path d="M482,211h-33.763c1.681-4.715,2.763-9.716,2.763-15c0-19.53-12.578-36.024-30-42.237V105    c0-37.026-27.039-67.672-62.366-73.722C352.791,13.2,335.999,0,316,0H196c-19.999,0-36.791,13.2-42.634,31.278    C118.039,37.328,91,67.974,91,105v48.763C73.578,159.976,61,176.47,61,196c0,5.284,1.082,10.285,2.763,15H30    c-16.569,0-30,13.431-30,30c0,16.569,13.431,30,30,30h452c16.569,0,30-13.431,30-30C512,224.431,498.569,211,482,211z M106,211    c-8.276,0-15-6.724-15-15s6.724-15,15-15s15,6.724,15,15S114.276,211,106,211z M363.763,211H148.237    c1.681-4.715,2.763-9.716,2.763-15c0-19.53-12.578-36.024-30-42.237V105c0-20.744,14.178-38.077,33.303-43.264    C160.965,78.268,177.109,90,196,90h120c18.891,0,35.035-11.732,41.697-28.264C376.822,66.923,391,84.256,391,105v48.763    c-17.422,6.213-30,22.707-30,42.237C361,201.284,362.082,206.285,363.763,211z M406,211c-8.276,0-15-6.724-15-15s6.724-15,15-15    s15,6.724,15,15S414.276,211,406,211z" fill="#FFFFFF"/>
		<path d="M31.987,301l21.806,146.605C59.037,484.314,90.956,512,128.031,512h255.938c37.075,0,68.994-27.686,74.238-64.395    L480.013,301H31.987z M151,437c0,8.291-6.709,15-15,15s-15-6.709-15-15v-91c0-8.291,6.709-15,15-15s15,6.709,15,15V437z M211,437    c0,8.291-6.709,15-15,15s-15-6.709-15-15v-91c0-8.291,6.709-15,15-15s15,6.709,15,15V437z M271,437c0,8.291-6.709,15-15,15    c-8.291,0-15-6.709-15-15v-91c0-8.291,6.709-15,15-15s15,6.709,15,15V437z M331,437c0,8.291-6.709,15-15,15    c-8.291,0-15-6.709-15-15v-91c0-8.291,6.709-15,15-15c8.291,0,15,6.709,15,15V437z M391,437c0,8.291-6.709,15-15,15    c-8.291,0-15-6.709-15-15v-91c0-8.291,6.709-15,15-15c8.291,0,15,6.709,15,15V437z" fill="#FFFFFF"/>
</svg>
